<?xml version="1.0" encoding="UTF-8" standalone="no"?>
<svg
   viewBox="0 0 374.015 866.65734"
   height="866.65735"
   width="374.01498"
   xml:space="preserve"
   id="svg2"
   version="1.1"
   sodipodi:docname="mujer_survey.svg"
   inkscape:version="1.4.3 (0d15f75, 2025-12-25)"
   xmlns:inkscape="http://www.inkscape.org/namespaces/inkscape"
   xmlns:sodipodi="http://sodipodi.sourceforge.net/DTD/sodipodi-0.dtd"
   xmlns="http://www.w3.org/2000/svg"
   xmlns:svg="http://www.w3.org/2000/svg"
   xmlns:rdf="http://www.w3.org/1999/02/22-rdf-syntax-ns#"
   xmlns:cc="http://creativecommons.org/ns#"
   xmlns:dc="http://purl.org/dc/elements/1.1/"><sodipodi:namedview
     id="namedview1"
     pagecolor="#ffffff"
     bordercolor="#000000"
     borderopacity="0.25"
     inkscape:showpageshadow="2"
     inkscape:pageopacity="0.0"
     inkscape:pagecheckerboard="true"
     inkscape:deskcolor="#d1d1d1"
     inkscape:zoom="0.55220615"
     inkscape:cx="445.4858"
     inkscape:cy="535.12624"
     inkscape:window-width="1920"
     inkscape:window-height="1051"
     inkscape:window-x="-9"
     inkscape:window-y="-9"
     inkscape:window-maximized="1"
     inkscape:current-layer="g10" /><metadata
     id="metadata8"><rdf:RDF><cc:Work
         rdf:about=""><dc:format>image/svg+xml</dc:format><dc:type
           rdf:resource="http://purl.org/dc/dcmitype/StillImage" /></cc:Work></rdf:RDF></metadata><defs
     id="defs6" /><g
     transform="matrix(1.3333333,0,0,-1.3333333,-104.23476,953.8114)"
     id="g10"><g
       transform="matrix(0.07944544,0,0,0.07752182,-57.217377,-547.76421)"
       id="g18"><path
         id="path20"
         style="fill:#eea886;fill-opacity:1;fill-rule:nonzero;stroke:none"
         d="m 3407.01,15584.5 c 0,0 142.81,-203.7 320.18,-38.4 64.28,59.9 48.86,176.4 114.72,245.2 90.17,94.1 336.01,385.9 370.64,408 34.61,22.1 53.96,87.2 0.91,94 -53.05,6.7 -141.15,-60.1 -191.55,-72.8 -50.39,-12.7 -641.39,-380.8 -742.59,-475.5 -101.19,-94.6 127.69,-160.5 127.69,-160.5" /></g><path
       id="path22"
       style="fill:#eea987;fill-opacity:1;fill-rule:nonzero;stroke:none;stroke-width:0.0677157"
       d="m 236.30907,65.731994 c -8.69291,0.147161 -33.33413,1.27762 -47.02165,0 -13.68683,-1.284295 -19.00087,0.57527 -18.03843,9.297831 0.05,0.474923 0.11449,0.949857 0.18715,1.438152 1.23117,8.528589 4.3091,18.234451 4.99117,21.793047 0.71088,3.719126 17.95,2.702386 17.95,2.702386 0,0 9.08023,-11.919942 14.07482,-14.354776 4.98981,-2.428137 20.10318,-7.37806 25.9005,-9.665734 0.42502,-0.173905 0.885,-0.327762 1.36896,-0.474923 h 0.003 c 6.12501,-1.839495 16.48302,-2.100364 17.97879,-5.010131 1.61026,-3.150554 -8.69702,-5.866315 -17.39542,-5.725852" /><path
       id="path24"
       style="fill:#eea886;fill-opacity:1;fill-rule:nonzero;stroke:none;stroke-width:0.0677157"
       d="m 131.9818,438.69537 c 0,0 17.9493,-60.08806 29.1594,-105.95512 0,0 5.71713,-22.48871 8.07458,-33.06416 1.67538,-7.51184 7.77981,-36.66288 1.92422,-58.15491 -3.74492,-13.74608 -4.3372,-19.40505 -4.11373,-37.63949 0.24747,-20.18097 12.99448,-90.94481 9.40104,-105.620666 l 19.47388,0.769244 c 0,0 8.79231,120.898542 10.94754,125.152802 2.1566,4.25426 8.74843,13.43168 10.06119,32.32835 5.46143,78.61683 2.04486,107.48023 2.52403,128.96557 0.47917,21.47866 -87.45215,53.21838 -87.45215,53.21838" /><path
       id="path26"
       style="fill:#eea886;fill-opacity:1;fill-rule:nonzero;stroke:none;stroke-width:0.0677157"
       d="m 324.64415,521.45943 c 0,0 7.7757,-49.031 11.06614,-54.57625 3.28975,-5.54526 13.15968,-19.84652 3.28975,-28.60254 -9.86993,-8.74933 -22.73003,-8.74933 -22.73003,-8.74933 0,0 -12.47691,-15.17083 -18.84253,-19.26455 -6.80434,-4.38136 -51.1436,-25.39178 -63.70551,-27.72628 -12.5619,-2.33448 -18.24339,-2.91643 -18.24339,-2.91643 l 2.09285,58.95091 c 0,0 17.82248,2.33449 26.10889,9.05033 8.28641,6.70916 47.46655,52.23507 51.65294,61.28541 4.18776,9.04364 29.31089,12.54873 29.31089,12.54873" /><g
       transform="matrix(0.07674042,0,0,0.07488232,-57.217377,-547.76421)"
       id="g28"><path
         id="path30"
         style="fill:#eea886;fill-opacity:1;fill-rule:nonzero;stroke:none"
         d="m 3553.48,12384.6 c 0,0 -193.64,-83.1 -474.24,45.5 -280.59,128.6 -549.51,409.2 -619.65,549.5 -70.14,140.3 -520.27,1566.7 -613.81,1724.5 -93.53,157.8 -122.76,438.4 0,543.7 C 1968.55,15353 3394.9,16300 3394.9,16300 l 165.91,-188 c 0,0 -493.26,-659.6 -861.55,-835 -368.27,-175.4 -420.89,-175.4 -339.04,-380 81.83,-204.6 432.58,-549.5 549.49,-911.9 116.91,-362.4 134.45,-593.8 263.06,-653.5 128.61,-59.7 232.59,0 407.98,-159.8 155.18,-141.4 -27.27,-787.2 -27.27,-787.2" /></g><g
       transform="matrix(0.07784203,0,0,0.07595724,-57.217377,-547.76421)"
       id="g32"><path
         id="path34"
         style="fill:#eea886;fill-opacity:1;fill-rule:nonzero;stroke:none"
         d="m 3857.63,16190.8 c 0,0 -72.73,48.4 -96.8,60.7 -24.08,12.2 23.13,48.5 54.68,39.4 31.54,-9.1 42.12,-100.1 42.12,-100.1" /></g><g
       transform="matrix(0.07912942,0,0,0.07721346,-57.217377,-547.76421)"
       id="g36"><path
         id="path38"
         style="fill:#ffb490;fill-opacity:1;fill-rule:nonzero;stroke:none"
         d="m 3985.63,16295.5 c 0,0 36.61,-14.5 49.53,-28.6 0,0 21.54,-27.5 38.04,-46.2 5.25,-5.9 9.96,-10.9 13.34,-13.8 14.11,-12.3 48.75,-34.9 74.39,-73.8 25.66,-38.8 124.8,-245.9 124.8,-245.9 l -85.5,-79.3 -88.82,-40.2 c 0,0 -290.93,111.8 -319,145.2 -2.73,3.3 -5.3,6.6 -7.48,9.9 -21.02,30.7 -23.8,62.3 -33.01,79.6 -3.34,6.4 -32.29,72.1 -22.68,91.3 13.29,26.6 33.32,39.7 53.59,42.1 0,0 28.34,51 64.88,65.5 0,0 24.65,47.9 75.22,52.9 0,0 30.45,45.8 62.7,41.3" /></g><path
       id="path40"
       style="fill:#8d5173;fill-opacity:1;fill-rule:nonzero;stroke:none;stroke-width:0.0677157"
       d="m 339.00004,438.28064 c -9.86993,-8.74933 -22.73003,-8.74933 -22.73003,-8.74933 -10.29906,-12.52197 -22.45857,-24.18773 -37.38686,-31.23134 -14.30379,24.13423 -38.26703,47.25171 -38.26703,47.25171 9.21251,5.25762 50.88927,55.08461 54.71714,63.35902 4.18776,9.04364 29.31089,12.54873 29.31089,12.54873 0,0 7.7757,-49.031 11.06614,-54.57625 3.28975,-5.54526 13.15968,-19.84652 3.28975,-28.60254" /><path
       id="path42"
       style="fill:#575173;fill-opacity:1;fill-rule:nonzero;stroke:none;stroke-width:0.0677157"
       d="m 219.45246,374.3798 c 0.25432,-14.30795 1.11601,-33.27152 0.17411,-64.89082 -29.61045,-6.24091 -52.26302,-1.87294 -52.26302,-1.87294 -2.65771,11.10388 -6.22303,25.12421 -6.22303,25.12421 -11.21009,45.86706 -29.15804,105.95512 -29.15804,105.95512 0,0 67.35652,-24.30815 83.84296,-44.78344 l 1.7028,44.70317 c 0,0 1.96672,0.26087 4.84379,0.78931 11.37667,-26.33494 11.34994,-51.74678 11.34994,-51.74678 -6.60691,-1.11706 -11.31155,-1.79267 -14.28733,-2.18064 -0.0377,-1.70571 -0.004,-3.51845 0,-5.33788 -0.076,-0.14717 -0.046,-0.28764 -0.0453,-0.46155 0.008,-1.69903 0.0295,-3.46495 0.0631,-5.29776" /><path
       id="path44"
       style="fill:#575173;fill-opacity:1;fill-rule:nonzero;stroke:none;stroke-width:0.0677157"
       d="m 233.72197,382.54048 c -6.60691,-1.23078 -11.31155,-1.97327 -14.28733,-2.40137 -2.67965,-0.38797 -3.95606,-0.51506 -3.95606,-0.51506 0,0 -23.92762,-15.47187 -45.46212,-5.83957 -21.53383,9.63228 -33.0997,39.8937 -38.48298,50.39558 -2.47948,4.84289 -11.14017,30.09418 -20.46581,57.09803 23.59721,10.01356 51.30127,27.39849 51.30127,27.39849 0,0 0,0 0.003,-0.006 1.42859,-3.03684 2.68238,-6.10713 3.70173,-9.19749 8.9726,-27.13762 10.31825,-44.46236 20.18886,-48.93066 9.86992,-4.475 17.84854,0 31.30778,-11.96678 0,0 1.92353,0.2475 4.8006,0.82945 13.17476,-28.93699 11.34994,-56.86393 11.34994,-56.86393" /><g
       transform="matrix(0.07231343,0,0,0.07056249,-57.217377,-547.76421)"
       id="g46"><path
         id="path48"
         style="fill:#754836;fill-opacity:1;fill-rule:nonzero;stroke:none"
         d="m 5065.5,16125.2 c -127.19,-51 -54.62,-313.2 -67.22,-791 -12.61,-477.9 -364.61,-564.6 -364.61,-564.6 0,0 155.07,183 186.59,350.5 31.51,167.6 -316.43,590.9 -164.43,923.2 117.44,256.7 425.48,91.5 425.48,91.5 l -15.81,-9.6" /></g><g
       transform="matrix(0.0716286,0,0,0.06989427,-57.217377,-547.76421)"
       id="g50"><path
         id="path52"
         style="fill:#eea886;fill-opacity:1;fill-rule:nonzero;stroke:none"
         d="m 5339.89,16288.4 c 121.25,11.6 393.66,-36.8 450.43,-356.8 0,0 -5.6,-87.3 -23.45,-156.5 -17.85,-69.3 52.78,-267.5 37.3,-278.2 -15.47,-10.6 -80.77,-26.4 -80.77,-26.4 0,0 -60.5,-223.1 -137.74,-224.9 -77.22,-1.8 -372.09,44.7 -522.55,311.6 -150.48,266.8 -212.8,684.2 276.78,731.2" /></g><g
       transform="matrix(0.07247794,0,0,0.07072304,-57.217377,-547.76421)"
       id="g54"><path
         id="path56"
         style="fill:#754836;fill-opacity:1;fill-rule:nonzero;stroke:none"
         d="m 5722.5,15745 c 0,0 -188.66,-142.2 -380.88,-178.2 -192.23,-36 -296.24,-370.3 -296.24,-370.3 0,0 -322.89,485 -98.9,794.7 223.33,308.8 800.58,126.5 776.02,-246.2" /></g><g
       transform="matrix(0.06964748,0,0,0.06796111,-57.217377,-547.76421)"
       id="g58"><path
         id="path60"
         style="fill:#eea886;fill-opacity:1;fill-rule:nonzero;stroke:none"
         d="m 5474.52,16204.6 c -2.95,39 -49.08,95.4 -110.44,39.1 -61.35,-56.3 33.31,-237.5 84.8,-216.9 51.47,20.6 28.68,137.6 25.64,177.8" /></g><g
       transform="matrix(0.07712568,0,0,0.07525824,-57.217377,-547.76421)"
       id="g62"><path
         id="path64"
         style="fill:#ffb490;fill-opacity:1;fill-rule:nonzero;stroke:none"
         d="m 4668.09,13752.5 c 0,0 -203.45,-2.9 -148.65,205.4 78.85,299.7 166.37,593.4 184.96,683.9 18.59,90.4 170,685.1 136.9,729 -27.24,36.1 -154.96,270.8 -359.35,508 -205.53,238.5 -263.7,298.6 -263.7,298.6 l 178.84,122.6 c 0,0 720.8,-679.1 775.12,-754.7 89.19,-124.1 -175.81,-1337.9 -175.81,-1337.9 0,0 -9.04,-490.5 -328.31,-454.9" /></g><path
       id="path66"
       style="fill:#594175;fill-opacity:1;fill-rule:nonzero;stroke:none;stroke-width:0.0677157"
       d="m 219.45246,367.9449 c -49.91723,6.50848 -64.20388,29.98718 -64.42255,30.35507 36.44908,-26.26804 64.40473,-18.16086 64.40473,-18.16086 -0.0774,-3.79271 -0.0541,-7.79279 0.0178,-12.19421" /><path
       id="path68"
       style="fill:#ffb490;fill-opacity:1;fill-rule:nonzero;stroke:none;stroke-width:0.0677157"
       d="m 326.02408,507.52606 c 0,0 2.70707,-28.09416 -17.63054,-34.12102 -20.33762,-6.03356 -31.65122,12.83635 -12.83407,30.15439 18.81579,17.31805 30.46461,3.96663 30.46461,3.96663" /></g></svg>
