<?xml version="1.0" encoding="UTF-8" standalone="no"?>
<svg
   viewBox="0 0 573.90487 890.23565"
   height="890.23566"
   width="573.90485"
   xml:space="preserve"
   id="svg2"
   version="1.1"
   sodipodi:docname="hombre_survey.svg"
   inkscape:version="1.4.3 (0d15f75, 2025-12-25)"
   xmlns:inkscape="http://www.inkscape.org/namespaces/inkscape"
   xmlns:sodipodi="http://sodipodi.sourceforge.net/DTD/sodipodi-0.dtd"
   xmlns="http://www.w3.org/2000/svg"
   xmlns:svg="http://www.w3.org/2000/svg"
   xmlns:rdf="http://www.w3.org/1999/02/22-rdf-syntax-ns#"
   xmlns:cc="http://creativecommons.org/ns#"
   xmlns:dc="http://purl.org/dc/elements/1.1/"><sodipodi:namedview
     id="namedview1"
     pagecolor="#ffffff"
     bordercolor="#000000"
     borderopacity="0.25"
     inkscape:showpageshadow="2"
     inkscape:pageopacity="0.0"
     inkscape:pagecheckerboard="true"
     inkscape:deskcolor="#d1d1d1"
     inkscape:zoom="0.55220616"
     inkscape:cx="231.79749"
     inkscape:cy="459.06768"
     inkscape:window-width="1920"
     inkscape:window-height="1051"
     inkscape:window-x="-9"
     inkscape:window-y="-9"
     inkscape:window-maximized="1"
     inkscape:current-layer="g12" /><metadata
     id="metadata8"><rdf:RDF><cc:Work
         rdf:about=""><dc:format>image/svg+xml</dc:format><dc:type
           rdf:resource="http://purl.org/dc/dcmitype/StillImage" /></cc:Work></rdf:RDF></metadata><defs
     id="defs6" /><g
     transform="matrix(1.3333333,0,0,-1.3333333,-79.502473,959.23097)"
     id="g10"><g
       transform="matrix(0.12306527,0,0,0.12256626,24.067685,-104.68048)"
       id="g12"><path
         id="path138"
         style="fill:#4d4971;fill-opacity:1;fill-rule:nonzero;stroke:none"
         d="m 2475.74,4250.03 c 0,0 46.24,-135.96 60.93,-164.43 14.7,-28.48 330.22,-625.88 357.16,-765.88 26.94,-140 130.21,-472.77 157.15,-513.11 26.94,-40.33 115.11,-298.97 159.2,-512.55 44.07,-213.55 137.14,-578.98 156.73,-624.06 19.59,-45.09 -168.98,-47.46 -168.98,-47.46 0,0 -274.3,541.02 -335.53,640.68 -61.23,99.66 -117.56,270.51 -124.9,379.66 -7.35,109.15 -85.72,166.1 -154.3,249.15 -68.57,83.06 -399.2,711.87 -460.43,768.82 -61.22,56.95 -99.19,52.5 -99.19,52.5 v 455.89 l 452.16,80.79" /><path
         id="path140"
         style="fill:#4d4971;fill-opacity:1;fill-rule:nonzero;stroke:none"
         d="m 1591.96,4250.03 c 0,0 -46.16,-135.96 -60.86,-164.43 -14.69,-28.48 -365.5,-662.47 -392.44,-802.47 -26.94,-140 -94.92,-436.18 -121.87,-476.52 C 989.859,2766.28 901.684,2507.64 857.605,2294.06 813.52,2080.51 720.453,1715.08 700.863,1670 c -19.597,-45.09 168.985,-47.46 168.985,-47.46 0,0 274.302,541.02 335.532,640.68 61.23,99.66 117.55,270.51 124.9,379.66 7.35,109.15 85.72,166.1 154.29,249.15 68.57,83.06 399.21,711.87 460.43,768.82 61.24,56.95 100.41,52.5 100.41,52.5 l -1.22,455.89 -452.23,80.79" /><path
         id="path142"
         style="fill:#72938c;fill-opacity:1;fill-rule:nonzero;stroke:none"
         d="m 3354.57,1706.92 c 0,0 91.94,-115.05 145.21,-143.51 53.27,-28.45 248.58,-108.21 280.42,-174.04 22.33,-46.17 -8.22,-137.25 -196.03,-107.12 -187.81,30.12 -252.1,130.53 -309.04,142.24 -56.94,11.72 -118.75,55.29 -122.42,137.93 -3.68,82.65 29.79,74.81 22.44,104.92 -7.35,30.13 179.42,39.58 179.42,39.58" /><path
         id="path144"
         style="fill:#72938c;fill-opacity:1;fill-rule:nonzero;stroke:none"
         d="m 712.68,1705.17 c 0,0 -83.735,-113.3 -136.996,-141.76 -53.274,-28.45 -248.59,-108.21 -280.43,-174.04 -22.328,-46.17 8.226,-137.25 196.035,-107.12 187.809,30.12 252.094,130.53 309.039,142.24 56.938,11.72 118.754,55.29 122.426,137.93 3.672,82.65 -35.859,77.99 -28.508,108.11 7.348,30.12 -181.566,34.64 -181.566,34.64" /><path
         id="path146"
         style="fill:#706387;fill-opacity:1;fill-rule:nonzero;stroke:none"
         d="m 2214.47,5879.02 c 0,0 102.17,-20.74 172.51,-42.31 70.34,-21.56 213.01,-59.73 230.44,-79.64 17.42,-19.91 32.5,-267.12 -41.19,-522.64 -73.7,-255.51 -92.12,-1007.95 -92.12,-1007.95 0,0 -603.48,-151.81 -874.79,12.45 0,0 -56.39,467.88 -81.51,668.64 -25.12,200.76 13.4,836.23 13.4,836.23 0,0 155.75,68.03 221.07,86.28 65.32,18.25 227.77,74.66 227.77,74.66 l 224.42,-25.72" /><path
         id="path148"
         style="fill:#f2a686;fill-opacity:1;fill-rule:nonzero;stroke:none"
         d="m 2517.17,5797.79 c 0,0 122.7,-22.47 176.29,-58.97 53.6,-36.51 110.54,-199.1 107.18,-298.65 -3.34,-99.55 -8.64,-106.19 0.15,-204.63 8.79,-98.45 -45.92,-308.61 -79.41,-386.04 -33.5,-77.42 -62.66,-265.91 -78.29,-301.31 -15.63,-35.4 -77.93,-187.12 -113.76,-261.7 -38.51,-80.2 -202.09,-304.19 -202.09,-304.19 l -140.68,99.56 c 0,0 125.05,382.71 148.49,493.33 23.46,110.6 84.87,141.67 94.91,235.09 10.05,93.42 -5.58,355.57 34.62,475.03 40.19,119.47 -30.16,196.89 4.46,334.05 34.61,137.16 48.13,178.43 48.13,178.43" /><path
         id="path150"
         style="fill:#f2a686;fill-opacity:1;fill-rule:nonzero;stroke:none"
         d="m 1599.56,5768.64 c 0,0 -124.87,-15.51 -178.47,-52 -53.59,-36.51 -110.53,-199.11 -107.18,-298.66 3.36,-99.55 8.65,-106.18 -0.14,-204.63 -8.78,-98.44 45.92,-308.61 79.41,-386.04 33.5,-77.43 34.62,-253.3 50.25,-288.69 15.63,-35.4 105.97,-199.74 141.79,-274.32 38.53,-80.19 122.1,-282 122.1,-282 l 146.19,93.73 c 0,0 -71.13,337.66 -94.58,448.27 -23.45,110.61 -64.28,170.36 -74.34,263.79 -10.04,93.42 5.59,355.57 -34.6,475.03 -40.2,119.46 30.14,196.89 -4.47,334.05 -34.62,137.16 -45.96,171.47 -45.96,171.47" /><path
         id="path152"
         style="fill:#7070cc;fill-opacity:1;fill-rule:nonzero;stroke:none"
         d="m 2459.5,3104.05 c 0,-237.33 -194.2,-429.72 -433.76,-429.72 -239.57,0 -433.78,192.39 -433.78,429.72 0,237.34 194.21,429.73 433.78,429.73 239.56,0 433.76,-192.39 433.76,-429.73" /><path
         id="path154"
         style="fill:#7070cc;fill-opacity:1;fill-rule:nonzero;stroke:none"
         d="m 2419.31,3183.69 -33.09,5.14 c 0,0.01 0,0.02 0,0.02 z m 33.09,-5.16 -66.18,10.33 c 0.66,4.22 45.77,304.74 -96,468.84 -61.16,70.78 -150.14,106.67 -264.48,106.67 -114.35,0 -203.33,-35.89 -264.49,-106.67 -142.06,-164.43 -96.47,-465.84 -96,-468.87 l -66.18,-10.3 c -2.16,13.56 -50.97,334.26 111.12,522.13 74.47,86.31 180.63,130.08 315.55,130.08 134.9,0 241.07,-43.77 315.53,-130.08 162.09,-187.86 113.29,-508.57 111.13,-522.13" /><path
         id="path156"
         style="fill:#f2a686;fill-opacity:1;fill-rule:nonzero;stroke:none"
         d="m 1835.44,5852.68 c 0,0 -115.03,-477.22 241.7,-477.22 356.73,0 231.33,482.42 231.33,482.42 0,0 -64.96,39.12 -107.4,46.86 -42.43,7.74 -227.77,0 -227.77,0 0,0 -70.07,-23 -137.86,-52.06" /><path
         id="path158"
         style="fill:#f2a686;fill-opacity:1;fill-rule:nonzero;stroke:none"
         d="m 2221.18,6041.67 c 0,0 -18.29,-113.35 19.2,-189.7 0,0 40.42,-178.92 -145.12,-191.03 -185.53,-12.12 -193.47,152.64 -193.47,152.64 0,0 43.11,60.06 9.87,220.22 -33.24,160.16 309.52,7.87 309.52,7.87" /><path
         id="path160"
         style="fill:#f2a686;fill-opacity:1;fill-rule:nonzero;stroke:none"
         d="m 2093.74,6692.21 c 0,0 238.47,-32.79 210.69,-410.77 -27.78,-378 -238.2,-351.67 -252.23,-351.6 -14.03,0.08 -210.4,-11.48 -235.98,448.73 0,0 -14.27,340.4 277.52,313.64" /><path
         id="path162"
         style="fill:#f2a686;fill-opacity:1;fill-rule:nonzero;stroke:none"
         d="m 1821.91,6382.26 c 0,0 -26.11,28.15 -35.58,-0.43 -9.45,-28.58 35.48,-157 37.65,-161.78 0,0 4.79,-11.06 11.02,-4.95 6.22,6.11 -13.09,167.16 -13.09,167.16" /><path
         id="path164"
         style="fill:#f2a686;fill-opacity:1;fill-rule:nonzero;stroke:none"
         d="m 2305.42,6382.26 c 0,0 26.11,28.15 35.58,-0.43 9.44,-28.58 -35.48,-157 -37.65,-161.78 0,0 -4.79,-11.06 -11.02,-4.95 -6.23,6.11 13.09,167.16 13.09,167.16" /><path
         id="path166"
         style="fill:#2f4563;fill-opacity:1;fill-rule:nonzero;stroke:none"
         d="m 2306.91,6330.2 -33,-46.88 c 0,0 -1.28,101.18 -7.1,116.92 -5.8,15.74 4.87,71.24 0.06,82.57 -4.83,11.33 -161.85,-34.65 -421.51,-14.16 0,0 30.84,-90.52 14.1,-97.36 -16.75,-6.84 -5.97,-118.66 -5.97,-118.66 l -28.69,31.41 c 0,0 -35.84,190.64 -33.49,222.65 3.15,42.6 -15.83,240.8 349.49,214.69 41.82,-2.99 82.23,-17.27 116.13,-42.32 38.11,-28.15 77.63,-72.52 75.49,-134.69 -2.83,-82.18 -25.51,-214.17 -25.51,-214.17" /><path
         id="path168"
         style="fill:#a77860;fill-opacity:1;fill-rule:nonzero;stroke:none"
         d="m 1942.01,5978.25 c 0,0 130.94,-94.56 258.77,15.52 0,0 -26.58,-94.01 -125.27,-98.35 -98.68,-4.33 -133.5,82.83 -133.5,82.83" /><path
         id="path170"
         style="fill:#f2a686;fill-opacity:1;fill-rule:nonzero;stroke:none"
         d="m 2186.56,4081.86 c 0,0 -53.31,-56.97 -76.77,-74.39 -23.44,-17.43 -85.41,-131.9 -96.29,-163.43 -10.89,-31.53 0,-120.29 5.02,-126.1 5.03,-5.8 47.74,-9.12 86.26,-14.1 38.52,-4.97 118.07,-25.72 136.49,-16.59 18.42,9.13 65.74,94.57 68.67,114.07 2.93,19.49 2.78,143.38 17.3,180.98 14.52,37.61 -140.68,99.56 -140.68,99.56" /><path
         id="path172"
         style="fill:#f2a686;fill-opacity:1;fill-rule:nonzero;stroke:none"
         d="m 1848,4081.86 c 0,0 53.31,-56.97 76.77,-74.39 23.44,-17.43 85.41,-131.9 96.29,-163.43 10.89,-31.53 0,-120.29 -5.02,-126.1 -5.02,-5.8 -47.73,-9.12 -86.25,-14.1 -38.52,-4.97 -118.08,-25.72 -136.5,-16.59 -18.42,9.13 -65.73,94.57 -68.66,114.07 -2.94,19.49 -2.79,143.38 -17.31,180.98 -14.51,37.61 140.68,99.56 140.68,99.56" /><path
         id="path198"
         style="fill:#eea886;fill-opacity:1;fill-rule:nonzero;stroke:none"
         d="m 3298.24,4944.65 c 0,0 -48.36,1.01 -63.18,3.05 -14.82,2.04 -4.83,-29.37 12.4,-35.2 17.22,-5.83 50.78,32.15 50.78,32.15" /></g></g></svg>
