<?xml version="1.0" encoding="UTF-8" standalone="no"?>
<!-- Created with Inkscape (http://www.inkscape.org/) -->

<svg
   width="200mm"
   height="120mm"
   viewBox="0 0 200 120"
   version="1.1"
   id="svg1"
   inkscape:version="1.4.3 (0d15f75, 2025-12-25)"
   sodipodi:docname="logo_black.svg"
   xmlns:inkscape="http://www.inkscape.org/namespaces/inkscape"
   xmlns:sodipodi="http://sodipodi.sourceforge.net/DTD/sodipodi-0.dtd"
   xmlns="http://www.w3.org/2000/svg"
   xmlns:svg="http://www.w3.org/2000/svg">
  <sodipodi:namedview
     id="namedview1"
     pagecolor="#ffffff"
     bordercolor="#000000"
     borderopacity="0.25"
     inkscape:showpageshadow="2"
     inkscape:pageopacity="0.0"
     inkscape:pagecheckerboard="true"
     inkscape:deskcolor="#d1d1d1"
     inkscape:document-units="mm"
     inkscape:zoom="0.52473017"
     inkscape:cx="754.67358"
     inkscape:cy="105.76865"
     inkscape:window-width="1920"
     inkscape:window-height="1051"
     inkscape:window-x="-9"
     inkscape:window-y="-9"
     inkscape:window-maximized="1"
     inkscape:current-layer="text3" />
  <defs
     id="defs1">
    <rect
       x="264.12228"
       y="342.28091"
       width="66.030571"
       height="107.80501"
       id="rect4" />
    <rect
       x="121.28064"
       y="253.34178"
       width="651.14362"
       height="865.84808"
       id="rect3" />
    <rect
       x="401.57367"
       y="305.89673"
       width="150.92702"
       height="173.83559"
       id="rect2" />
    <rect
       x="169.79289"
       y="216.9576"
       width="486.47012"
       height="397.53098"
       id="rect1" />
  </defs>
  <g
     inkscape:label="Capa 1"
     inkscape:groupmode="layer"
     id="layer1"><text
   xml:space="preserve"
   transform="scale(0.26458333)"
   id="text1"
   style="font-style:normal;font-variant:normal;font-weight:normal;font-stretch:normal;font-family:'Comic Sans MS';-inkscape-font-specification:'Comic Sans MS';writing-mode:lr-tb;direction:ltr;white-space:pre;shape-inside:url(#rect1);display:inline;fill:#000000" />
<text
   xml:space="preserve"
   transform="scale(0.26458333)"
   id="text2"
   style="font-style:normal;font-variant:normal;font-weight:normal;font-stretch:normal;font-family:'Comic Sans MS';-inkscape-font-specification:'Comic Sans MS';writing-mode:lr-tb;direction:ltr;white-space:pre;shape-inside:url(#rect2);display:inline;fill:#000000" />
<g
   id="text3"
   style="font-size:192px;line-height:0.8;font-family:'Comic Sans MS';-inkscape-font-specification:'Comic Sans MS';white-space:pre;stroke-width:1.00157"
   transform="matrix(0.26458333,0,0,0.26458333,-11.112501,0)"
   aria-label="L  ft&amp;&#10;Mov">
  <path
     style="font-weight:bold;font-family:'Heuvel Grotesk DEMO';-inkscape-font-specification:'Heuvel Grotesk DEMO Bold';fill:#000000;fill-opacity:1"
     d="m 98.84925,61.7418 h 25.536 v 112.512 h 59.328 v 21.888 h -84.864 z m 153.43472,38.4 h 21.888 l 4.04269,0.17557 c -1.408,0 -7.05069,-4.14357 -8.84269,-6.70357 -1.792,-2.688 -2.688,-6.848 -2.688,-12.48 0,-3.712 0.576,-7.296 1.728,-10.752 1.152,-3.456 3.008,-6.528 5.568,-9.216 2.56,-2.688 5.952,-4.864 10.176,-6.528 4.352,-1.664 9.6,-2.496 15.744,-2.496 h 29.376 v 21.696 h -24.576 c -5.12,0 -9.152,1.344 -12.096,4.032 -2.816,2.56 -4.224,6.272 -4.224,11.136 0,1.92 0.512,4.096 1.536,6.528 1.024,2.432 3.008,3.968 5.952,4.608 h 31.488 v 21.696 h -32.64 v 74.304 h -25.536 v -74.304 h -16.896 z m 84.67173,0 h 17.088 v -26.496 h 25.344 v 26.496 h 34.56 v 21.888 h -34.56 v 21.312 c 0,5.504 0.64,10.048 1.92,13.632 1.408,3.584 3.392,6.4 5.952,8.448 2.688,2.048 5.888,3.456 9.6,4.224 3.712,0.768 7.872,1.152 12.48,1.152 v 25.344 c -8.064,0 -15.488,-0.768 -22.272,-2.304 -6.656,-1.536 -12.48,-4.224 -17.472,-8.064 -4.864,-3.968 -8.704,-9.344 -11.52,-16.128 -2.688,-6.912 -4.032,-15.68 -4.032,-26.304 v -21.312 h -17.088 z m 98.11192,-6.912 c 0,-4.608 0.768,-8.896 2.304,-12.864 1.664,-4.096 4.288,-7.68 7.872,-10.752 3.584,-3.072 8.128,-5.44 13.632,-7.104 5.632,-1.792 12.48,-2.688 20.544,-2.688 5.888,0 11.584,0.512 17.088,1.536 5.504,1.024 10.368,2.88 14.592,5.568 4.352,2.56 7.808,6.08 10.368,10.56 2.56,4.48 3.84,10.24 3.84,17.28 v 3.072 h -25.536 v -2.496 c 0,-2.56 -0.64,-4.736 -1.92,-6.528 -1.152,-1.792 -2.688,-3.2 -4.608,-4.224 -1.92,-1.024 -4.032,-1.728 -6.336,-2.112 -2.176,-0.512 -4.352,-0.768 -6.528,-0.768 -5.376,0 -9.984,1.024 -13.824,3.072 -3.712,2.048 -5.568,5.376 -5.568,9.984 0,3.456 1.6,6.784 4.8,9.984 3.2,3.2 7.296,6.528 12.288,9.984 5.12,3.328 10.88,6.848 17.28,10.56 6.4,3.584 12.736,7.552 19.008,11.904 0.512,-2.56 0.896,-5.376 1.152,-8.448 0.256,-3.072 0.384,-6.464 0.384,-10.176 v -6.336 h 24.192 v 5.568 c 0,6.016 -0.832,11.904 -2.496,17.664 -1.536,5.76 -3.392,10.944 -5.568,15.552 6.528,6.016 11.84,12.736 15.936,20.16 4.224,7.296 6.336,15.616 6.336,24.96 h -25.344 c 0,-5.888 -0.96,-10.624 -2.88,-14.208 -1.92,-3.712 -3.776,-6.464 -5.568,-8.256 -1.536,3.072 -3.776,6.08 -6.72,9.024 -2.816,2.944 -6.272,5.568 -10.368,7.872 -4.096,2.304 -8.704,4.16 -13.824,5.568 -5.12,1.28 -10.624,1.92 -16.512,1.92 -7.296,0 -13.952,-0.832 -19.968,-2.496 -6.016,-1.792 -11.2,-4.416 -15.552,-7.872 -4.224,-3.456 -7.488,-7.744 -9.792,-12.864 -2.304,-5.12 -3.456,-11.072 -3.456,-17.856 0,-4.992 0.704,-9.6 2.112,-13.824 1.536,-4.224 3.584,-7.872 6.144,-10.944 2.688,-3.072 5.76,-5.44 9.216,-7.104 3.584,-1.664 7.424,-2.496 11.52,-2.496 v -2.496 c -0.768,0 -2.176,-0.512 -4.224,-1.536 -1.92,-1.024 -3.968,-2.56 -6.144,-4.608 -2.048,-2.176 -3.904,-4.992 -5.568,-8.448 -1.536,-3.456 -2.304,-7.552 -2.304,-12.288 z m 28.8,39.936 c -3.712,0.128 -7.168,1.856 -10.368,5.184 -3.072,3.328 -4.608,8.256 -4.608,14.784 0,4.352 0.768,8 2.304,10.944 1.536,2.944 3.584,5.312 6.144,7.104 2.56,1.664 5.44,2.88 8.64,3.648 3.2,0.768 6.528,1.152 9.984,1.152 3.84,0 7.296,-0.512 10.368,-1.536 3.072,-1.024 5.76,-2.368 8.064,-4.032 2.304,-1.664 4.224,-3.52 5.76,-5.568 1.536,-2.048 2.624,-4.096 3.264,-6.144 -1.92,-2.048 -4.672,-4.288 -8.256,-6.72 -3.584,-2.432 -7.36,-4.8 -11.328,-7.104 -3.84,-2.432 -7.616,-4.672 -11.328,-6.72 -3.584,-2.048 -6.464,-3.712 -8.64,-4.992 z"
     id="path7"
     sodipodi:nodetypes="cccccccccccssscsccscsscccccccccccccccccsccscccccscccscscsscssccscscscsscccssccsccccccccscsccssccccccccsccsscssssscsccc" />
  <path
     style="font-weight:bold;font-size:232px;font-family:'Heuvel Grotesk DEMO';-inkscape-font-specification:'Heuvel Grotesk DEMO Bold';fill:#000000;fill-opacity:1"
     d="m 180.51325,338.6389 c 0,-0.61867 0.0773,-2.62933 0.232,-6.032 0.30933,-3.55733 0.77333,-7.888 1.392,-12.992 0.61867,-5.104 1.392,-10.672 2.32,-16.704 1.08267,-6.18667 2.32,-12.21867 3.712,-18.096 l 22.04,-70.296 h 47.792 v 162.4 h -30.856 v -78.184 c 0,-6.496 0.232,-12.83733 0.696,-19.024 0.61867,-6.34133 1.23733,-12.064 1.856,-17.168 0.77333,-5.25867 1.54667,-9.58933 2.32,-12.992 0.77333,-3.55733 1.31467,-5.72267 1.624,-6.496 l -3.016,-0.696 -37.352,134.56 h -28.768 l -37.12,-134.56 -3.016,0.696 c 0.30933,0.77333 0.85067,2.93867 1.624,6.496 0.77333,3.40267 1.46933,7.73333 2.088,12.992 0.77333,5.104 1.392,10.82667 1.856,17.168 0.61867,6.18667 0.928,12.528 0.928,19.024 v 78.184 h -30.856 v -162.4 h 47.792 l 22.04,70.296 c 1.392,5.87733 2.552,11.90933 3.48,18.096 1.08267,6.032 1.93333,11.6 2.552,16.704 0.61867,5.104 1.00533,9.43467 1.16,12.992 0.30933,3.40267 0.464,5.41333 0.464,6.032 z m 90.94407,-19.72 c 0,-8.66133 1.23733,-16.704 3.712,-24.128 2.47467,-7.424 6.18667,-13.76533 11.136,-19.024 5.104,-5.41333 11.368,-9.58933 18.792,-12.528 7.424,-3.09333 16.08533,-4.64 25.984,-4.64 10.05333,0 18.792,1.54667 26.216,4.64 7.424,2.93867 13.61067,7.11467 18.56,12.528 5.104,5.25867 8.89333,11.6 11.368,19.024 2.47467,7.424 3.712,15.46667 3.712,24.128 0,8.66133 -1.23733,16.704 -3.712,24.128 -2.47467,7.424 -6.264,13.84267 -11.368,19.256 -4.94933,5.25867 -11.136,9.43467 -18.56,12.528 -7.424,2.93867 -16.16267,4.408 -26.216,4.408 -9.89867,0 -18.56,-1.46933 -25.984,-4.408 -7.424,-3.09333 -13.688,-7.26933 -18.792,-12.528 -4.94933,-5.41333 -8.66133,-11.832 -11.136,-19.256 -2.47467,-7.424 -3.712,-15.46667 -3.712,-24.128 z m 30.856,0 c 0,10.208 2.32,18.40533 6.96,24.592 4.64,6.18667 11.90933,9.28 21.808,9.28 10.05333,0 17.4,-3.09333 22.04,-9.28 4.64,-6.18667 6.96,-14.384 6.96,-24.592 0,-10.208 -2.32,-18.40533 -6.96,-24.592 -4.64,-6.18667 -11.98667,-9.28 -22.04,-9.28 -9.89867,0 -17.168,3.09333 -21.808,9.28 -4.64,6.18667 -6.96,14.384 -6.96,24.592 z m 130.38398,58 -40.368,-116 h 32.712 l 19.952,65.888 c 0.77333,3.248 1.54667,6.57333 2.32,9.976 0.928,3.248 1.392,5.87733 1.392,7.888 h 3.248 c 0,-2.01067 0.38667,-4.64 1.16,-7.888 0.928,-3.40267 1.856,-6.728 2.784,-9.976 l 19.952,-65.888 h 32.712 l -40.368,116 z"
     id="path8"
     sodipodi:nodetypes="ccsccccccsccccccccccccsccccccscccssccsccsssccsccsssssssssssccccccccccccc" />
</g>
<text
   xml:space="preserve"
   transform="scale(0.26458333)"
   id="text4"
   style="font-style:normal;font-variant:normal;font-weight:normal;font-stretch:normal;font-family:'Comic Sans MS';-inkscape-font-specification:'Comic Sans MS';writing-mode:lr-tb;direction:ltr;white-space:pre;shape-inside:url(#rect4);display:inline;fill:#000000" />
<style
   id="style1">
.MsftOfcThm_Background1_Fill_v2 {
 fill:#FFFFFF; 
}
</style>

<path
   d="m 41.3686,49.302548 h 1.8591 l -4.8e-5,1.951664 c 0,0.33956 0.27535,0.614902 0.614865,0.614852 l 2.270372,5e-5 c 0.163138,0 0.319545,-0.0647 0.434886,-0.180062 0.11534,-0.11535 0.180075,-0.27175 0.180072,-0.4349 v -1.951694 h 1.859288 c 1.171645,0 2.121214,-0.94975 2.121118,-2.12112 4.5e-5,-0.75794 -0.397796,-1.42257 -0.995831,-1.79759 h 0.899805 c 1.829117,-4e-5 3.310954,-1.48225 3.310859,-3.31086 9.3e-5,-1.8287 -1.48179,-3.31105 -3.310677,-3.31095 H 46.72789 l 4.5e-5,-9.231661 3.884379,-5e-5 c 1.828987,10e-5 3.310867,-1.482345 3.310874,-3.311225 4.8e-5,-1.828275 -1.481927,-3.31072 -3.310716,-3.310625 h -0.899995 c 0.598033,-0.375015 0.995829,-1.039695 0.995832,-1.797595 5e-5,-1.17122 -0.949337,-2.12107 -2.121214,-2.12121 l -1.859243,4.5e-5 v -1.951615 c 3e-6,-0.339565 -0.275345,-0.614915 -0.614865,-0.614865 l -2.270275,-5e-5 c -0.339657,0 -0.61496,0.2753 -0.614915,0.614915 l 8e-6,1.951625 -1.859285,9.5e-5 c -1.171458,9e-5 -2.121118,0.94994 -2.121118,2.121115 -5e-5,0.757945 0.397692,1.42258 0.99578,1.79764 l -0.89962,5e-6 c -1.828415,-9.5e-5 -3.311237,1.48235 -3.31134,3.310665 9.5e-5,1.82879 1.482868,3.31119 3.311143,3.31114 h 3.88434 l 2e-6,9.231701 -3.884195,-5e-5 c -1.828415,-1e-4 -3.311187,1.4823 -3.31119,3.31118 -4.2e-5,1.82838 1.482823,3.31078 3.311043,3.31069 h 0.899989 c -0.598027,0.37502 -0.99592,1.0397 -0.996012,1.7976 -5e-5,1.1714 0.949518,2.12116 2.121208,2.1212 z"
   class="MsftOfcThm_Background1_Fill_v2"
   fill="#FFFFFF"
   id="path1"
   style="fill:#000000;fill-opacity:1;stroke-width:0.0661455"
   sodipodi:nodetypes="cccccsccsccsccccccccccccccccccccccccccccccc" />
<style
   id="style1-5">
.MsftOfcThm_Background1_Fill_v2 {
 fill:#FFFFFF; 
}
</style>
<path
   d="m 189.62036,75.132121 -6.89737,-20.377182 c -0.42765,-1.263014 -1.62621,-2.114348 -2.97528,-2.113538 -3.24898,0.0468 -6.42678,-0.941504 -9.07004,-2.806737 -2.25262,-2.824175 -3.82145,-6.119112 -4.58676,-9.633102 -0.3806,-1.667345 -2.05823,-2.714476 -3.74746,-2.338801 -0.57907,0.128648 -1.10957,0.417532 -1.52902,0.831563 l -18.81102,18.567 c -1.22446,1.208394 -1.22469,3.167672 -4.3e-4,4.376296 0.0166,0.0116 0.0332,0.035 0.0509,0.0468 l 39.3056,37.133849 c 1.23276,1.166054 3.18377,1.143844 4.38924,-0.0468 l 5.18557,-5.13078 c 4.58457,-4.530566 4.58457,-11.870084 0,-16.400767 -0.59663,-0.592977 -1.0462,-1.314244 -1.31364,-2.107331 z m -3.11009,14.132502 -3.0317,2.992462 -34.77529,-32.857323 12.89809,-12.730796 c 1.0393,2.789908 2.62193,5.351868 4.65885,7.541306 3.13892,2.654685 7.06729,4.229516 11.19255,4.487056 l 6.21705,18.390554 c 0.58097,1.705701 1.55315,3.255972 2.84045,4.530333 2.13443,2.113538 2.13443,5.53288 0,7.646408 z M 125.40898,84.20518 c 0,-1.709088 1.40368,-3.094442 3.13516,-3.094442 h 25.08135 c 1.73155,0 3.13517,1.385354 3.13517,3.094442 0,1.709091 -1.40362,3.094455 -3.13517,3.094455 h -25.08135 c -1.73148,0 -3.13516,-1.385364 -3.13516,-3.094455 z m 0,-12.377898 c 0,-1.709091 1.40368,-3.094572 3.13516,-3.094572 h 12.54067 c 1.73149,0 3.13518,1.385481 3.13518,3.094572 0,1.709091 -1.40369,3.094442 -3.13518,3.094442 h -12.54067 c -1.73148,0 -3.13516,-1.385351 -3.13516,-3.094442 z m 0,24.755799 c 0,-1.709091 1.40368,-3.094432 3.13516,-3.094432 h 37.62203 c 1.73154,0 3.13516,1.385341 3.13516,3.094432 0,1.709101 -1.40362,3.094572 -3.13516,3.094572 h -37.62203 c -1.73148,0 -3.13516,-1.385471 -3.13516,-3.094572 z"
   class="MsftOfcThm_Background1_Fill_v2"
   fill="#FFFFFF"
   id="path1-5"
   style="fill:#000000;fill-opacity:1;stroke-width:3.11477"
   sodipodi:nodetypes="cccccccccccccccccccccccccsssssssssssssssssssss" />
</g>
</svg>
